Coordinates
version=1
nRows=26
nColumns=24
inDegrees=yes

Units are S.I. units (second, meters, Newtons, ...)
Angles are in degrees.

endheader
time	pelvis_tilt	pelvis_list	pelvis_rotation	pelvis_tx	pelvis_ty	pelvis_tz	hip_flexion_r	hip_adduction_r	hip_rotation_r	knee_angle_r	ankle_angle_r	subtalar_angle_r	mtp_angle_r	hip_flexion_l	hip_adduction_l	hip_rotation_l	knee_angle_l	ankle_angle_l	subtalar_angle_l	mtp_angle_l	lumbar_extension	lumbar_bending	lumbar_rotation
      1.96000000	     19.66352569	     -3.77607099	      4.16513935	     -0.20553679	      0.85385458	      0.00055363	      0.02122268	      2.70651584	    -15.46525873	    -43.53813821	     33.01108312	      6.10908688	     31.95880088	    -18.44592109	     -2.75215693	     -9.94139169	    -20.75949896	     30.02304697	     14.48948364	     29.34912669	    -36.08430113	      5.14593539	    -10.48344176
      1.96500000	     19.82997853	     -4.10054511	      4.39001826	     -0.20007159	      0.85398403	      0.00067601	     -0.24788512	      3.25046493	    -15.93531818	    -40.38667156	     32.93797386	      6.41967886	     32.06321131	    -19.00083839	     -3.23907434	     -9.99716100	    -20.80311029	     30.37043658	     14.71677468	     29.19911474	    -36.26013661	      5.55455423	    -10.49825126
      1.97000000	     20.04735429	     -4.44697549	      4.60536779	     -0.19451003	      0.85415995	      0.00092742	     -0.68006724	      3.87411713	    -16.36462504	    -36.98288706	     32.75397440	      6.76758199	     32.31669320	    -19.59718804	     -3.77770842	    -10.19266804	    -20.91077257	     30.68872119	     15.04935702	     29.00524655	    -36.47828002	      5.96700343	    -10.46135365
      1.97500000	     20.25805617	     -4.77381524	      4.88995358	     -0.18879834	      0.85427631	      0.00108404	     -1.20302367	      4.49801974	    -16.93342884	    -33.40363766	     32.46612278	      7.18047894	     32.59872794	    -20.21029499	     -4.31318706	    -10.30077378	    -20.95049178	     31.03079932	     15.35967541	     28.87072567	    -36.66494434	      6.40096003	    -10.49524524
      1.98000000	     20.46740913	     -5.11277681	      5.13305189	     -0.18301704	      0.85430485	      0.00142600	     -1.80308976	      5.19066378	    -17.40755739	    -29.62923015	     31.81336032	      7.47941432	     34.57745088	    -20.79341086	     -4.88253084	    -10.56812398	    -21.10319350	     31.46002568	     15.84963037	     28.05628523	    -36.84252157	      6.81063034	    -10.45885211
      1.98500000	     20.69420247	     -5.35477973	      5.39461286	     -0.17708514	      0.85427085	      0.00173196	     -2.49282784	      5.79389038	    -17.97806973	    -25.81190556	     31.33682632	      8.13917870	     34.79008252	    -21.43473545	     -5.34656027	    -10.76811843	    -21.17131373	     31.74943510	     16.13893604	     28.02829612	    -37.01753116	      7.13899230	    -10.51522669
      1.99000000	     20.87654361	     -5.53258829	      5.67482695	     -0.17109368	      0.85407266	      0.00205382	     -3.17396657	      6.35458412	    -18.59517116	    -21.96816702	     30.71344493	      8.81863075	     35.16525310	    -22.01263130	     -5.75724232	    -10.89704132	    -21.27636691	     32.03291436	     16.49268994	     28.01292217	    -37.13202530	      7.41417143	    -10.60343894
      1.99500000	     20.97301428	     -5.69745936	      5.89103319	     -0.16501679	      0.85364013	      0.00258712	     -3.77610063	      6.92862818	    -19.11209674	    -18.12994143	     29.68034979	      9.31210102	     37.75256313	    -22.48022024	     -6.15594972	    -11.15666089	    -21.46928717	     32.44177765	     16.94979839	     27.75227506	    -37.14842544	      7.62672568	    -10.65560109
      2.00000000	     21.08028339	     -5.69614207	      6.11190995	     -0.15890866	      0.85313232	      0.00304467	     -4.39642348	      7.31599086	    -19.76599484	    -14.46421296	     28.87454509	     10.30871942	     37.98157736	    -22.98657222	     -6.35733515	    -11.23171617	    -21.59592621	     32.69195484	     17.12911117	     27.76480634	    -37.17313547	      7.69228169	    -10.81631384
      2.00500000	     21.08473701	     -5.69568835	      6.26458120	     -0.15269599	      0.85237574	      0.00370322	     -4.89184973	      7.71494801	    -20.32984421	    -10.93226477	     27.71346606	     11.08960856	     40.55580086	    -23.36947076	     -6.56076050	    -11.45000183	    -21.80161113	     33.01874591	     17.51256804	     27.68817444	    -37.07945805	      7.70866018	    -10.93603436
      2.01000000	     21.06420333	     -5.57423578	      6.38400329	     -0.14655497	      0.85150533	      0.00436314	     -5.29429232	      7.95651991	    -20.95019787	     -7.78248995	     26.83904843	     12.21808715	     40.80851582	    -23.72886532	     -6.60711166	    -11.54900928	    -21.99641546	     33.25804765	     17.68612404	     27.72263005	    -36.97380767	      7.59856050	    -11.10315766
      2.01500000	     20.92891781	     -5.43035216	      6.47907974	     -0.14045160	      0.85042526	      0.00503166	     -5.47587549	      8.13209264	    -21.66815666	     -5.02659369	     25.88409491	     13.42591729	     42.77885657	    -23.92629439	     -6.61400146	    -11.59270862	    -22.27761545	     33.55605495	     17.82358618	     27.78701161	    -36.75143740	      7.45590869	    -11.24016745
      2.02000000	     20.80406529	     -5.25789659	      6.51896736	     -0.13438769	      0.84932910	      0.00582663	     -5.62442554	      8.27190891	    -22.29327320	     -2.57538416	     25.07046437	     14.63423336	     43.08263034	    -24.13703957	     -6.58391673	    -11.70666987	    -22.57465555	     33.76011952	     18.03991949	     27.85088122	    -36.55400443	      7.25257099	    -11.36730706
      2.02500000	     20.62003668	     -5.08503664	      6.56699445	     -0.12837980	      0.84814249	      0.00656039	     -5.62745626	      8.37292115	    -23.04176751	     -0.49704390	     24.33871006	     16.03959928	     44.05723487	    -24.22912534	     -6.54648946	    -11.73497607	    -22.98531784	     33.96142546	     18.07024921	     27.98164790	    -36.29597808	      7.06212372	    -11.47211246
      2.03000000	     20.44778742	     -4.90686701	      6.61386465	     -0.12239977	      0.84697908	      0.00733444	     -5.62337554	      8.46700120	    -23.73231866	      1.34772771	     23.61529516	     17.30387874	     44.51563128	    -24.34333557	     -6.51414849	    -11.75125749	    -23.36146609	     34.19654589	     18.29093779	     28.11182453	    -36.05918676	      6.86441900	    -11.58233215
      2.03500000	     20.26940421	     -4.74494319	      6.67082964	     -0.11645841	      0.84581348	      0.00807328	     -5.57496329	      8.55887684	    -24.44400271	      2.91263094	     22.98311851	     18.60760109	     45.03992921	    -24.40409230	     -6.50357621	    -11.73269025	    -23.84021178	     34.39551898	     18.39605029	     28.27458353	    -35.81792103	      6.69560215	    -11.67928701
      2.04000000	     20.09219147	     -4.61687427	      6.74579833	     -0.11055231	      0.84466617	      0.00881059	     -5.50886486	      8.67853468	    -25.11836135	      4.24933187	     22.35500722	     19.72640619	     45.43937570	    -24.41956355	     -6.54905936	    -11.72818556	    -24.41401429	     34.59232795	     18.48066510	     28.45045259	    -35.58054233	      6.57038746	    -11.78515404
      2.04500000	     19.91161482	     -4.47862885	      6.80435971	     -0.10465913	      0.84358005	      0.00948638	     -5.42464218	      8.75488743	    -25.77068042	      5.33886480	     21.79057482	     20.93098762	     46.02760909	    -24.44388616	     -6.56107832	    -11.63997334	    -24.94517637	     34.69802926	     18.58267331	     28.74605210	    -35.34277463	      6.44261213	    -11.81439151
      2.05000000	     19.76200520	     -4.39158678	      6.88402411	     -0.09873147	      0.84255506	      0.01015092	     -5.38020781	      8.88364776	    -26.36493645	      6.25045988	     21.18376584	     21.91165023	     46.80753833	    -24.46939690	     -6.64745888	    -11.57922433	    -25.54794148	     34.71498315	     18.58406927	     29.26645493	    -35.13114453	      6.37853245	    -11.84981062
      2.05500000	     19.57759737	     -4.29355787	      6.96260907	     -0.09288779	      0.84151016	      0.01083547	     -5.33031381	      8.98394315	    -26.68489198	      7.03758855	     20.54705205	     22.36787056	     46.86127799	    -24.40837889	     -6.72523558	    -11.45456336	    -26.24618340	     34.85053857	     18.63724768	     29.38859915	    -34.89344217	      6.30279464	    -11.90777906
      2.06000000	     19.49910803	     -4.26908561	      7.15585509	     -0.08696307	      0.84062205	      0.01128444	     -5.33884773	      9.15350244	    -27.37996485	      7.50630521	     20.13533651	     23.27388612	     47.26940081	    -24.40121929	     -6.95203077	    -11.31881095	    -27.06058144	     34.93142417	     18.84378963	     29.82153850	    -34.74470672	      6.38144672	    -11.97775071
      2.06500000	     19.43711389	     -4.20919673	      7.29690770	     -0.08103742	      0.83987275	      0.01172354	     -5.43265319	      9.26880726	    -27.78615795	      7.94193817	     19.42986831	     23.76075097	     48.70441243	    -24.44765314	     -7.08676336	    -11.09327070	    -27.76742166	     34.66992445	     18.67576177	     31.69597631	    -34.62215259	      6.41329226	    -11.98763309
      2.07000000	     19.33188584	     -4.18224657	      7.45490669	     -0.07511905	      0.83905965	      0.01217158	     -5.49173685	      9.39886643	    -28.01231158	      8.22773981	     18.85265015	     23.91894831	     48.69714778	    -24.37199209	     -7.28585321	    -10.88836432	    -28.65324827	     34.62322740	     18.77055246	     31.80954039	    -34.45146490	      6.48167450	    -12.02536561
      2.07500000	     19.31791074	     -4.19026097	      7.66515567	     -0.06914387	      0.83843049	      0.01245142	     -5.63719887	      9.55561119	    -28.37384230	      8.33450372	     18.23052260	     24.25813830	     49.60745958	    -24.36512454	     -7.54885455	    -10.65406889	    -29.57141901	     34.38829101	     18.83250427	     33.63369791	    -34.36491079	      6.63572463	    -12.05700210
      2.08000000	     19.24021283	     -4.22974777	      7.88098982	     -0.06323600	      0.83774654	      0.01272747	     -5.72530178	      9.71969990	    -28.43356018	      8.33524808	     17.64743814	     23.90339452	     49.77902350	    -24.21216488	     -7.84726966	    -10.37469242	    -30.64311929	     34.21230744	     18.95002091	     34.22982680	    -34.21532459	      6.82393595	    -12.07834167
      2.08500000	     19.27735342	     -4.25666412	      8.14863302	     -0.05726405	      0.83730311	      0.01282978	     -5.96395685	      9.87894606	    -28.59457202	      8.27199466	     16.93743896	     23.75394057	     49.81544987	    -24.17584368	     -8.14248760	    -10.00180339	    -31.69782980	     33.98811075	     18.92205414	     34.49561755	    -34.17804565	      7.04910501	    -12.14089983
